<svg xmlns="http://www.w3.org/2000/svg" xmlns:xlink="http://www.w3.org/1999/xlink" width="500" zoomAndPan="magnify" viewBox="0 0 375 374.999991" height="500" preserveAspectRatio="xMidYMid meet" version="1.0"><defs><g/></defs><rect x="-37.5" width="450" fill="#ffffff" y="-37.499999" height="449.999989" fill-opacity="1"/><rect x="-37.5" width="450" fill="#ffffff" y="-37.499999" height="449.999989" fill-opacity="1"/><rect x="-37.5" width="450" fill="#dfac13" y="-37.499999" height="449.999989" fill-opacity="1"/><g fill="#000000" fill-opacity="0.4"><g transform="translate(77.778015, 302.179168)"><g><path d="M 9.484375 0 L 9.484375 -214.390625 L 52.15625 -214.390625 L 52.15625 -137.765625 L 72.375 -137.765625 L 72.375 -214.390625 L 115.0625 -214.390625 L 115.0625 0 L 72.375 0 L 72.375 -97.328125 L 52.15625 -97.328125 L 52.15625 0 Z M 9.484375 0 "/></g></g></g><g fill="#000000" fill-opacity="0.4"><g transform="translate(202.319647, 302.179168)"><g><path d="M 29.203125 0 L 2.75 -214.640625 L 43.671875 -214.640625 L 59.40625 -68.640625 L 73.375 -214.640625 L 114.3125 -214.640625 L 87.84375 0 Z M 29.203125 0 "/></g></g></g><g fill="#ffffff" fill-opacity="1"><g transform="translate(66.747911, 291.149066)"><g><path d="M 9.484375 0 L 9.484375 -214.390625 L 52.15625 -214.390625 L 52.15625 -137.765625 L 72.375 -137.765625 L 72.375 -214.390625 L 115.0625 -214.390625 L 115.0625 0 L 72.375 0 L 72.375 -97.328125 L 52.15625 -97.328125 L 52.15625 0 Z M 9.484375 0 "/></g></g></g><g fill="#ffffff" fill-opacity="1"><g transform="translate(191.289543, 291.149066)"><g><path d="M 29.203125 0 L 2.75 -214.640625 L 43.671875 -214.640625 L 59.40625 -68.640625 L 73.375 -214.640625 L 114.3125 -214.640625 L 87.84375 0 Z M 29.203125 0 "/></g></g></g></svg>